# xmcd
#
# Track frame offsets: 
#        150
#        15426
#        30626
#        45955
#        61272
#        74822
#        91249
#        104624
#        116712
#        132280
#        145547
#        160363
#        174554
#        188163
#        200425
#        215287
#        230990
#        246094
#        261474
#        274913
#
# Disc length: 3830 seconds
#
# Revision: 8
# Processed by: cddbd v1.5.2PL0 Copyright (c) Steve Scherf et al.
# Submitted via: ExactAudioCopy v0.95b3
#
DISCID=290ef414
DTITLE=Glenn Miller - In The Mood [CD6] [222917-321]
DYEAR=2005
DGENRE=Jazz
TTITLE0=Prairieland Lullabye
TTITLE1=Ida! Sweet As Apple Cider
TTITLE2=Song Of The Volga Boatmen
TTITLE3=The One I Love  (Belongs To Somebody Else)
TTITLE4=You Stepped Out Of A Dream
TTITLE5=I Dreamt I Dwelt In Harlem
TTITLE6=Sun Valley Jump
TTITLE7=When That Man Is Dead And Gone
TTITLE8=The Spirit Is Willing
TTITLE9=A Little Old Church In England
TTITLE10=Perfidia
TTITLE11=It's Always You
TTITLE12=Spring Will Be So Sad  (When She Comes This Year)
TTITLE13=The Airminded Executive
TTITLE14=Below The Equator
TTITLE15=Boulder Buff
TTITLE16=The Booglie Wooglie Piggy
TTITLE17=Chattanooga Choo Choo
TTITLE18=I Don't Know Why
TTITLE19=Don't Cry Cherie
EXTD=Vol 6 of a 10 CD box\n\n(P) 2000 Trumpets Of Jericho Ltd.\n(C) 20
EXTD=00 TIM The International Music Company AG\n\nOder No. 204276\n
EXTT0=
EXTT1=
EXTT2=
EXTT3=
EXTT4=
EXTT5=
EXTT6=
EXTT7=
EXTT8=
EXTT9=
EXTT10=
EXTT11=
EXTT12=
EXTT13=
EXTT14=
EXTT15=
EXTT16=
EXTT17=
EXTT18=
EXTT19=
PLAYORDER=
